<svg width="144" height="144" viewBox="0 0 144 144" fill="none" xmlns="http://www.w3.org/2000/svg">
<rect width="144" height="144" fill="#DAE0E6"/>
<path d="M40.816 74.008C45.328 74.008 48.624 72.92 50.704 70.744C52.816 68.568 53.872 65.592 53.872 61.816C53.872 60.088 53.6 58.52 53.056 57.112C52.544 55.672 51.744 54.456 50.656 53.464C49.6 52.44 48.256 51.656 46.624 51.112C44.992 50.568 43.056 50.296 40.816 50.296H31.696V74.008H40.816ZM40.816 39.352C45.584 39.352 49.696 39.912 53.152 41.032C56.64 42.152 59.504 43.72 61.744 45.736C63.984 47.72 65.632 50.088 66.688 52.84C67.776 55.592 68.32 58.584 68.32 61.816C68.32 65.24 67.76 68.376 66.64 71.224C65.52 74.072 63.824 76.52 61.552 78.568C59.28 80.616 56.416 82.216 52.96 83.368C49.504 84.488 45.456 85.048 40.816 85.048H31.696V109H17.296V39.352H40.816ZM124.908 91.864C125.708 91.864 126.38 92.152 126.924 92.728L132.636 98.824C129.82 102.408 126.316 105.128 122.124 106.984C117.964 108.84 113.004 109.768 107.244 109.768C102.028 109.768 97.3395 108.888 93.1795 107.128C89.0195 105.336 85.4835 102.856 82.5715 99.688C79.6595 96.52 77.4195 92.76 75.8515 88.408C74.2835 84.056 73.4995 79.304 73.4995 74.152C73.4995 70.696 73.8675 67.416 74.6035 64.312C75.3715 61.176 76.4755 58.296 77.9155 55.672C79.3555 53.048 81.0835 50.68 83.0995 48.568C85.1475 46.456 87.4515 44.664 90.0115 43.192C92.5715 41.688 95.3555 40.552 98.3635 39.784C101.404 38.984 104.636 38.584 108.06 38.584C110.62 38.584 113.036 38.808 115.308 39.256C117.612 39.704 119.756 40.328 121.74 41.128C123.724 41.928 125.548 42.904 127.212 44.056C128.908 45.176 130.428 46.408 131.772 47.752L126.924 54.376C126.636 54.792 126.268 55.16 125.82 55.48C125.372 55.8 124.764 55.96 123.996 55.96C123.228 55.96 122.444 55.688 121.644 55.144C120.876 54.6 119.916 53.992 118.764 53.32C117.644 52.648 116.22 52.04 114.492 51.496C112.796 50.952 110.636 50.68 108.012 50.68C105.1 50.68 102.428 51.208 99.9955 52.264C97.5635 53.32 95.4675 54.856 93.7075 56.872C91.9795 58.856 90.6355 61.304 89.6755 64.216C88.7155 67.128 88.2355 70.44 88.2355 74.152C88.2355 77.896 88.7475 81.24 89.7715 84.184C90.8275 87.096 92.2515 89.56 94.0435 91.576C95.8675 93.592 97.9795 95.128 100.38 96.184C102.812 97.208 105.404 97.72 108.156 97.72C109.788 97.72 111.26 97.64 112.572 97.48C113.916 97.32 115.148 97.048 116.268 96.664C117.42 96.28 118.492 95.784 119.484 95.176C120.508 94.568 121.532 93.8 122.556 92.872C122.908 92.584 123.276 92.344 123.66 92.152C124.044 91.96 124.46 91.864 124.908 91.864Z" fill="white"/>
<path d="M10 133.48H133.452V138.232H10V133.48Z" fill="white"/>
</svg>
