<svg width="512" height="512" viewBox="0 0 512 512" fill="none" xmlns="http://www.w3.org/2000/svg">
<rect width="512" height="512" fill="#DAE0E6"/>
<path d="M145.782 263.341C161.856 263.341 173.598 259.465 181.008 251.713C188.532 243.961 192.294 233.359 192.294 219.907C192.294 213.751 191.325 208.165 189.387 203.149C187.563 198.019 184.713 193.687 180.837 190.153C177.075 186.505 172.287 183.712 166.473 181.774C160.659 179.836 153.762 178.867 145.782 178.867H113.292V263.341H145.782ZM145.782 139.879C162.768 139.879 177.417 141.874 189.729 145.864C202.155 149.854 212.358 155.44 220.338 162.622C228.318 169.69 234.189 178.126 237.951 187.93C241.827 197.734 243.765 208.393 243.765 219.907C243.765 232.105 241.77 243.277 237.78 253.423C233.79 263.569 227.748 272.29 219.654 279.586C211.56 286.882 201.357 292.582 189.045 296.686C176.733 300.676 162.312 302.671 145.782 302.671H113.292V388H61.992V139.879H145.782ZM445.358 326.953C448.208 326.953 450.602 327.979 452.54 330.031L472.889 351.748C462.857 364.516 450.374 374.206 435.44 380.818C420.62 387.43 402.95 390.736 382.43 390.736C363.848 390.736 347.147 387.601 332.327 381.331C317.507 374.947 304.91 366.112 294.536 354.826C284.162 343.54 276.182 330.145 270.596 314.641C265.01 299.137 262.217 282.208 262.217 263.854C262.217 251.542 263.528 239.857 266.15 228.799C268.886 217.627 272.819 207.367 277.949 198.019C283.079 188.671 289.235 180.235 296.417 172.711C303.713 165.187 311.921 158.803 321.041 153.559C330.161 148.201 340.079 144.154 350.795 141.418C361.625 138.568 373.139 137.143 385.337 137.143C394.457 137.143 403.064 137.941 411.158 139.537C419.366 141.133 427.004 143.356 434.072 146.206C441.14 149.056 447.638 152.533 453.566 156.637C459.608 160.627 465.023 165.016 469.811 169.804L452.54 193.402C451.514 194.884 450.203 196.195 448.607 197.335C447.011 198.475 444.845 199.045 442.109 199.045C439.373 199.045 436.58 198.076 433.73 196.138C430.994 194.2 427.574 192.034 423.47 189.64C419.48 187.246 414.407 185.08 408.251 183.142C402.209 181.204 394.514 180.235 385.166 180.235C374.792 180.235 365.273 182.116 356.609 185.878C347.945 189.64 340.478 195.112 334.208 202.294C328.052 209.362 323.264 218.083 319.844 228.457C316.424 238.831 314.714 250.63 314.714 263.854C314.714 277.192 316.538 289.105 320.186 299.593C323.948 309.967 329.021 318.745 335.405 325.927C341.903 333.109 349.427 338.581 357.977 342.343C366.641 345.991 375.875 347.815 385.679 347.815C391.493 347.815 396.737 347.53 401.411 346.96C406.199 346.39 410.588 345.421 414.578 344.053C418.682 342.685 422.501 340.918 426.035 338.752C429.683 336.586 433.331 333.85 436.979 330.544C438.233 329.518 439.544 328.663 440.912 327.979C442.28 327.295 443.762 326.953 445.358 326.953Z" fill="white"/>
<path d="M36 475.21H475.796V492.139H36V475.21Z" fill="white"/>
</svg>
