<svg width="30" height="30" viewBox="0 0 30 30" fill="none" xmlns="http://www.w3.org/2000/svg">
<rect width="30" height="30" fill="#DAE0E6"/>
<path d="M8.42 15.71C9.36 15.71 10.0467 15.4833 10.48 15.03C10.92 14.5767 11.14 13.9567 11.14 13.17C11.14 12.81 11.0833 12.4833 10.97 12.19C10.8633 11.89 10.6967 11.6367 10.47 11.43C10.25 11.2167 9.97 11.0533 9.63 10.94C9.29 10.8267 8.88667 10.77 8.42 10.77H6.52V15.71H8.42ZM8.42 8.49C9.41333 8.49 10.27 8.60667 10.99 8.84C11.7167 9.07333 12.3133 9.4 12.78 9.82C13.2467 10.2333 13.59 10.7267 13.81 11.3C14.0367 11.8733 14.15 12.4967 14.15 13.17C14.15 13.8833 14.0333 14.5367 13.8 15.13C13.5667 15.7233 13.2133 16.2333 12.74 16.66C12.2667 17.0867 11.67 17.42 10.95 17.66C10.23 17.8933 9.38667 18.01 8.42 18.01H6.52V23H3.52V8.49H8.42ZM25.9391 19.43C26.1057 19.43 26.2457 19.49 26.3591 19.61L27.5491 20.88C26.9624 21.6267 26.2324 22.1933 25.3591 22.58C24.4924 22.9667 23.4591 23.16 22.2591 23.16C21.1724 23.16 20.1957 22.9767 19.3291 22.61C18.4624 22.2367 17.7257 21.72 17.1191 21.06C16.5124 20.4 16.0457 19.6167 15.7191 18.71C15.3924 17.8033 15.2291 16.8133 15.2291 15.74C15.2291 15.02 15.3057 14.3367 15.4591 13.69C15.6191 13.0367 15.8491 12.4367 16.1491 11.89C16.4491 11.3433 16.8091 10.85 17.2291 10.41C17.6557 9.97 18.1357 9.59667 18.6691 9.29C19.2024 8.97667 19.7824 8.74 20.4091 8.58C21.0424 8.41333 21.7157 8.33 22.4291 8.33C22.9624 8.33 23.4657 8.37667 23.9391 8.47C24.4191 8.56333 24.8657 8.69333 25.2791 8.86C25.6924 9.02667 26.0724 9.23 26.4191 9.47C26.7724 9.70333 27.0891 9.96 27.3691 10.24L26.3591 11.62C26.2991 11.7067 26.2224 11.7833 26.1291 11.85C26.0357 11.9167 25.9091 11.95 25.7491 11.95C25.5891 11.95 25.4257 11.8933 25.2591 11.78C25.0991 11.6667 24.8991 11.54 24.6591 11.4C24.4257 11.26 24.1291 11.1333 23.7691 11.02C23.4157 10.9067 22.9657 10.85 22.4191 10.85C21.8124 10.85 21.2557 10.96 20.7491 11.18C20.2424 11.4 19.8057 11.72 19.4391 12.14C19.0791 12.5533 18.7991 13.0633 18.5991 13.67C18.3991 14.2767 18.2991 14.9667 18.2991 15.74C18.2991 16.52 18.4057 17.2167 18.6191 17.83C18.8391 18.4367 19.1357 18.95 19.5091 19.37C19.8891 19.79 20.3291 20.11 20.8291 20.33C21.3357 20.5433 21.8757 20.65 22.4491 20.65C22.7891 20.65 23.0957 20.6333 23.3691 20.6C23.6491 20.5667 23.9057 20.51 24.1391 20.43C24.3791 20.35 24.6024 20.2467 24.8091 20.12C25.0224 19.9933 25.2357 19.8333 25.4491 19.64C25.5224 19.58 25.5991 19.53 25.6791 19.49C25.7591 19.45 25.8457 19.43 25.9391 19.43Z" fill="white"/>
<path d="M2 28.1H27.7191V29.09H2V28.1Z" fill="white"/>
</svg>
