<?xml version="1.0" standalone="no"?>
<!DOCTYPE svg PUBLIC "-//W3C//DTD SVG 20010904//EN"
 "http://www.w3.org/TR/2001/REC-SVG-20010904/DTD/svg10.dtd">
<svg version="1.0" xmlns="http://www.w3.org/2000/svg"
 width="22" height="22" viewBox="0 0 48.000000 48.000000"
 preserveAspectRatio="xMidYMid meet">
<metadata>
Created by potrace 1.13, written by Peter Selinger 2001-2015
</metadata>
<g transform="translate(0.000000,48.000000) scale(0.100000,-0.100000)"
fill="#666666" stroke="none">
<path d="M190 439 c-63 -25 -108 -105 -94 -166 3 -15 19 -45 35 -65 17 -21 33
-59 39 -86 15 -80 29 -102 64 -102 35 0 50 24 62 98 4 24 17 56 29 70 36 43
45 68 45 118 0 57 -33 107 -87 129 -41 17 -58 18 -93 4z m54 -28 c3 -5 -11
-18 -31 -28 -36 -19 -46 -30 -57 -66 -7 -23 -26 -13 -26 13 0 43 96 111 114
81z m31 -321 c0 -18 -62 -27 -77 -12 -18 18 3 33 40 30 25 -2 37 -8 37 -18z
m-20 -39 c3 -5 1 -13 -5 -16 -15 -9 -43 3 -35 15 8 13 32 13 40 1z"/>
</g>
</svg>
