<?xml version="1.0" standalone="no"?>
<!DOCTYPE svg PUBLIC "-//W3C//DTD SVG 20010904//EN"
 "http://www.w3.org/TR/2001/REC-SVG-20010904/DTD/svg10.dtd">
<svg version="1.0" xmlns="http://www.w3.org/2000/svg"
 width="15pt" height="15pt" viewBox="0 0 24.000000 24.000000"
 preserveAspectRatio="xMidYMid meet">

<g transform="translate(0.000000,24.000000) scale(0.100000,-0.100000)"
fill="#666666" stroke="none">
<path d="M84 193 c-5 -19 -2 -30 11 -40 23 -16 27 -16 50 0 13 10 16 21 11 40
-5 22 -12 27 -36 27 -24 0 -31 -5 -36 -27z"/>
<path d="M14 179 c-8 -14 21 -43 35 -35 6 4 11 16 11 27 0 21 -34 27 -46 8z"/>
<path d="M180 171 c0 -27 19 -36 37 -18 18 18 9 37 -18 37 -12 0 -19 -7 -19
-19z"/>
<path d="M12 118 c-6 -6 -12 -29 -12 -50 0 -31 4 -38 19 -38 14 0 20 9 23 33
3 17 7 38 9 46 5 19 -23 25 -39 9z"/>
<path d="M82 114 c-16 -11 -22 -25 -22 -55 l0 -39 60 0 60 0 0 39 c0 61 -50
89 -98 55z"/>
<path d="M186 122 c-2 -4 -1 -14 5 -22 5 -8 9 -28 9 -43 0 -22 4 -28 18 -25
21 4 29 62 11 84 -13 15 -35 19 -43 6z"/>
</g>
</svg>
