<?xml version="1.0" standalone="no"?>
<!DOCTYPE svg PUBLIC "-//W3C//DTD SVG 20010904//EN"
 "http://www.w3.org/TR/2001/REC-SVG-20010904/DTD/svg10.dtd">
<svg version="1.0" xmlns="http://www.w3.org/2000/svg"
 width="22" height="22" viewBox="0 0 24.000000 24.000000"
 preserveAspectRatio="xMidYMid meet">

<g transform="translate(0.000000,24.000000) scale(0.100000,-0.100000)"
fill="#666666" stroke="none">
<path d="M75 231 c-45 -20 -70 -60 -70 -112 0 -42 5 -53 33 -81 28 -28 39 -33
82 -33 43 0 54 5 82 33 28 28 33 39 33 82 0 42 -5 54 -31 81 -33 33 -92 46
-129 30z m60 -72 c5 -16 12 -19 31 -15 26 7 27 4 18 -43 -6 -30 -7 -31 -65
-31 -33 0 -59 4 -59 9 0 5 -3 23 -6 40 -6 30 -5 32 19 26 20 -5 26 -2 32 14 3
12 10 21 15 21 5 0 12 -9 15 -21z"/>
</g>
</svg>
