<?xml version="1.0" standalone="no"?>
<!DOCTYPE svg PUBLIC "-//W3C//DTD SVG 20010904//EN"
 "http://www.w3.org/TR/2001/REC-SVG-20010904/DTD/svg10.dtd">
<svg version="1.0" xmlns="http://www.w3.org/2000/svg"
 width="16" height="16" viewBox="0 0 512.000000 512.000000"
 preserveAspectRatio="xMidYMid meet">

<g transform="translate(0.000000,512.000000) scale(0.100000,-0.100000)"
fill="#666666" stroke="none">
<path d="M2175 5106 c-37 -17 -70 -52 -84 -89 -8 -19 -11 -360 -11 -1083 l0
-1054 -332 0 c-303 0 -337 -2 -374 -19 -61 -28 -89 -73 -89 -142 0 -50 5 -63
35 -101 19 -24 283 -327 587 -674 379 -434 563 -636 586 -648 44 -20 90 -20
134 0 23 12 207 214 586 648 304 347 568 650 587 674 31 39 35 50 35 102 0 50
-5 64 -31 96 -49 60 -62 62 -431 63 l-333 1 -2 1069 c-3 1063 -3 1070 -24
1097 -11 15 -33 37 -48 48 -26 20 -41 21 -394 23 -291 2 -373 0 -397 -11z"/>
<path d="M162 923 l3 -678 26 -56 c33 -71 87 -125 158 -158 l56 -26 2155 0
2155 0 56 26 c71 33 125 87 158 158 l26 56 3 678 3 677 -321 0 -320 0 0 -480
0 -480 -1760 0 -1760 0 0 480 0 480 -320 0 -321 0 3 -677z"/>
</g>
</svg>
