<?xml version="1.0" standalone="no"?>
<!DOCTYPE svg PUBLIC "-//W3C//DTD SVG 20010904//EN"
 "http://www.w3.org/TR/2001/REC-SVG-20010904/DTD/svg10.dtd">
<svg version="1.0" xmlns="http://www.w3.org/2000/svg"
 width="16pt" height="16pt" viewBox="0 0 512.000000 512.000000"
 preserveAspectRatio="xMidYMid meet">

<g transform="translate(0.000000,512.000000) scale(0.100000,-0.100000)"
fill="#736f72" stroke="none">
<path d="M1591 5103 c-66 -35 -75 -58 -81 -211 l-5 -137 -255 -5 c-245 -5
-257 -6 -305 -30 -71 -34 -148 -117 -177 -187 l-23 -58 -3 -2070 c-1 -1359 1
-2086 8 -2117 23 -112 96 -205 198 -255 l57 -28 1555 0 1555 0 57 28 c75 37
134 98 172 177 l31 65 0 2100 0 2100 -23 58 c-29 70 -106 153 -177 187 -48 24
-60 25 -305 30 l-255 5 -5 137 c-4 118 -8 141 -26 165 -63 85 -180 80 -248
-11 -18 -24 -21 -45 -24 -162 l-4 -134 -299 0 -299 0 0 125 c0 150 -15 192
-80 225 -51 26 -95 25 -144 -3 -64 -36 -76 -71 -76 -219 l0 -128 -299 0 -299
0 -4 134 c-3 117 -6 138 -24 162 -50 68 -129 91 -193 57z m-79 -792 c3 -133 4
-141 28 -166 79 -85 206 -70 251 29 15 32 19 66 19 159 l0 117 300 0 300 0 0
-122 c0 -97 4 -130 18 -158 53 -107 211 -107 264 0 14 28 18 61 18 158 l0 122
300 0 300 0 0 -117 c0 -140 16 -187 74 -223 30 -18 47 -22 92 -18 47 4 61 10
92 42 l37 36 3 140 4 140 218 0 c215 0 219 0 234 -22 14 -20 16 -232 16 -2055
0 -2020 0 -2033 -20 -2053 -20 -20 -33 -20 -1500 -20 -1467 0 -1480 0 -1500
20 -20 20 -20 33 -20 2053 0 1823 2 2035 16 2055 15 22 19 22 234 22 l218 0 4
-139z"/>
<path d="M1582 3270 c-100 -61 -95 -211 8 -262 33 -17 100 -18 970 -18 870 0
937 1 970 18 103 51 108 201 8 262 -32 20 -53 20 -978 20 -925 0 -946 0 -978
-20z"/>
<path d="M1554 2336 c-41 -40 -44 -47 -44 -96 0 -62 23 -106 72 -135 32 -20
51 -20 978 -20 876 0 947 1 977 17 47 26 73 76 73 138 0 49 -3 56 -44 96 l-43
44 -963 0 -963 0 -43 -44z"/>
<path d="M1590 1461 c-104 -54 -108 -200 -8 -261 32 -20 53 -20 978 -20 925 0
946 0 978 20 100 61 96 207 -8 261 -33 18 -79 19 -970 19 -891 0 -937 -1 -970
-19z"/>
</g>
</svg>
