<?xml version="1.0" standalone="no"?>
<!DOCTYPE svg PUBLIC "-//W3C//DTD SVG 20010904//EN"
 "http://www.w3.org/TR/2001/REC-SVG-20010904/DTD/svg10.dtd">
<svg version="1.0" xmlns="http://www.w3.org/2000/svg"
 width="15pt" height="15pt" viewBox="0 0 24.000000 24.000000"
 preserveAspectRatio="xMidYMid meet">

<g transform="translate(0.000000,24.000000) scale(0.100000,-0.100000)"
fill="#666666" stroke="none">
<path d="M7 233 c-11 -10 -8 -53 3 -53 6 0 10 9 10 20 0 13 7 20 20 20 11 0
20 5 20 10 0 11 -43 14 -53 3z"/>
<path d="M180 231 c0 -6 9 -11 20 -11 13 0 20 -7 20 -20 0 -11 5 -20 11 -20 6
0 9 12 7 28 -2 21 -9 28 -30 30 -16 2 -28 -1 -28 -7z"/>
<path d="M90 205 c-15 -18 -10 -45 13 -59 34 -22 73 27 47 59 -16 19 -44 19
-60 0z"/>
<path d="M56 104 c-9 -8 -16 -26 -16 -40 0 -23 2 -24 80 -24 78 0 80 1 80 24
0 14 -7 32 -16 40 -21 21 -107 21 -128 0z"/>
<path d="M2 33 c2 -22 9 -29 31 -31 15 -2 27 1 27 7 0 6 -9 11 -20 11 -13 0
-20 7 -20 20 0 11 -5 20 -11 20 -6 0 -9 -12 -7 -27z"/>
<path d="M220 40 c0 -13 -7 -20 -20 -20 -11 0 -20 -5 -20 -11 0 -6 12 -9 28
-7 21 2 28 9 30 31 2 15 -1 27 -7 27 -6 0 -11 -9 -11 -20z"/>
</g>
</svg>
