<?xml version="1.0" standalone="no"?>
<!DOCTYPE svg PUBLIC "-//W3C//DTD SVG 20010904//EN"
 "http://www.w3.org/TR/2001/REC-SVG-20010904/DTD/svg10.dtd">
<svg version="1.0" xmlns="http://www.w3.org/2000/svg"
 width="200.000000pt" height="200.000000pt" viewBox="0 0 200.000000 200.000000"
 preserveAspectRatio="xMidYMid meet">
<metadata>
Created by potrace 1.13, written by Peter Selinger 2001-2015
</metadata>
<g transform="translate(0.000000,200.000000) scale(0.100000,-0.100000)"
fill="#666666" stroke="none">
<path d="M538 1712 c-409 -311 -371 -273 -462 -456 -80 -159 -89 -198 -54
-220 13 -8 28 -4 68 17 27 15 52 27 55 27 3 0 5 -184 5 -408 0 -383 1 -410 18
-425 17 -15 75 -17 628 -17 583 0 611 1 630 19 11 10 67 78 125 151 57 72 128
162 157 198 l52 66 0 132 c0 72 -3 133 -6 137 -4 3 -29 -19 -57 -49 -55 -61
-78 -77 -100 -68 -8 3 -63 86 -122 185 -58 98 -111 177 -116 173 -5 -3 -9
-184 -9 -430 l0 -424 -555 0 -555 0 0 515 0 515 558 0 559 0 123 -207 c68
-115 128 -211 134 -215 14 -9 385 370 386 394 0 9 -4 18 -8 20 -5 2 -60 89
-122 193 -62 105 -121 198 -132 208 -19 16 -61 17 -579 17 l-558 0 -63 -48z
m962 -157 l-115 -115 -527 2 -526 3 80 60 c44 33 110 84 147 112 l66 53 495 0
495 0 -115 -115z"/>
<path d="M567 1182 c-22 -24 -21 -35 1 -55 16 -15 47 -17 229 -17 191 0 211 2
226 18 22 24 21 35 -1 55 -16 15 -47 17 -229 17 -191 0 -211 -2 -226 -18z"/>
</g>
</svg>
