<?xml version="1.0" standalone="no"?>
<!DOCTYPE svg PUBLIC "-//W3C//DTD SVG 20010904//EN"
 "http://www.w3.org/TR/2001/REC-SVG-20010904/DTD/svg10.dtd">
<svg version="1.0" xmlns="http://www.w3.org/2000/svg"
 width="22" height="22" viewBox="0 0 24.000000 24.000000"
 preserveAspectRatio="xMidYMid meet">

<g transform="translate(0.000000,24.000000) scale(0.100000,-0.100000)"
fill="#666666" stroke="none">
<path d="M38 185 c-9 -21 -8 -28 7 -45 10 -11 26 -20 36 -20 23 0 49 37 41 59
-14 39 -67 43 -84 6z"/>
<path d="M161 136 c-16 -20 -3 -46 24 -46 27 0 40 26 24 46 -15 18 -33 18 -48
0z"/>
<path d="M19 98 c-5 -9 -9 -28 -9 -42 0 -25 2 -26 70 -26 70 0 70 0 70 28 0
45 -14 56 -70 56 -39 1 -54 -3 -61 -16z"/>
<path d="M160 53 c0 -20 5 -23 35 -23 30 0 35 3 35 24 0 22 -4 24 -35 23 -29
-2 -35 -6 -35 -24z"/>
</g>
</svg>
