<?xml version="1.0" standalone="no"?>
<!DOCTYPE svg PUBLIC "-//W3C//DTD SVG 20010904//EN"
 "http://www.w3.org/TR/2001/REC-SVG-20010904/DTD/svg10.dtd">
<svg version="1.0" xmlns="http://www.w3.org/2000/svg"
 width="24" height="24" viewBox="0 0 90 90"
 preserveAspectRatio="xMidYMid meet">

<g transform="translate(0.000000,90.000000) scale(0.100000,-0.100000)"
fill="#736f72" stroke="none">
<path d="M355 796 c-107 -34 -186 -102 -232 -201 -24 -51 -28 -73 -28 -145 0
-72 4 -94 28 -146 130 -282 522 -281 654 1 24 51 28 73 28 145 0 72 -4 94 -28
145 -30 65 -81 124 -138 160 -78 50 -199 68 -284 41z m229 -80 c105 -51 161
-144 161 -266 0 -85 -21 -142 -74 -203 -82 -92 -237 -121 -353 -64 -160 79
-215 278 -118 430 80 126 246 170 384 103z"/>
<path d="M338 533 c-38 -38 -68 -75 -68 -84 0 -24 135 -152 156 -147 33 6 28
38 -12 79 l-37 38 124 3 124 3 0 25 0 25 -124 3 -124 3 37 38 c41 42 45 74 11
79 -14 2 -42 -19 -87 -65z"/>
</g>
</svg>
