<svg width="29" height="28" viewBox="0 0 29 28" fill="none" xmlns="http://www.w3.org/2000/svg">
<g clip-path="url(#clip0_43_1547)" filter="url(#filter0_i_43_1547)">
<path d="M13.2425 0.0601578C11.8261 0.191408 10.448 0.541409 9.06989 1.11563C7.28161 1.85938 5.43317 3.17735 4.13708 4.62656C2.03708 6.98907 0.84489 9.71797 0.555046 12.8242C0.330827 15.2633 0.855827 18.0141 1.97692 20.2344C3.79801 23.8383 7.17223 26.5672 11.0277 27.5516C17.0105 29.0828 23.234 26.5289 26.4605 21.2242C27.8824 18.8891 28.5933 16.182 28.4785 13.5078C28.2816 8.71719 25.7879 4.50625 21.6699 2.00703C19.1761 0.492189 16.1246 -0.21328 13.2425 0.0601578Z" fill="black" fill-opacity="0.02"/>
</g>
<defs>
<filter id="filter0_i_43_1547" x="0.5" y="0" width="28" height="29" filterUnits="userSpaceOnUse" color-interpolation-filters="sRGB">
<feFlood flood-opacity="0" result="BackgroundImageFix"/>
<feBlend mode="normal" in="SourceGraphic" in2="BackgroundImageFix" result="shape"/>
<feColorMatrix in="SourceAlpha" type="matrix" values="0 0 0 0 0 0 0 0 0 0 0 0 0 0 0 0 0 0 127 0" result="hardAlpha"/>
<feOffset dy="1"/>
<feGaussianBlur stdDeviation="15"/>
<feComposite in2="hardAlpha" operator="arithmetic" k2="-1" k3="1"/>
<feColorMatrix type="matrix" values="0 0 0 0 0 0 0 0 0 0 0 0 0 0 0 0 0 0 0.1 0"/>
<feBlend mode="normal" in2="shape" result="effect1_innerShadow_43_1547"/>
</filter>
<clipPath id="clip0_43_1547">
<rect width="28" height="28" fill="white" transform="translate(0.5)"/>
</clipPath>
</defs>
</svg>
