<?xml version="1.0" standalone="no"?>
<!DOCTYPE svg PUBLIC "-//W3C//DTD SVG 20010904//EN"
 "http://www.w3.org/TR/2001/REC-SVG-20010904/DTD/svg10.dtd">
<svg version="1.0" xmlns="http://www.w3.org/2000/svg"
 width="22" height="22" viewBox="0 0 24.000000 24.000000"
 preserveAspectRatio="xMidYMid meet">

<g transform="translate(0.000000,24.000000) scale(0.100000,-0.100000)"
fill="#666666" stroke="none">
<path d="M56 224 c-31 -30 -9 -84 34 -84 24 0 50 26 50 50 0 24 -26 50 -50 50
-10 0 -26 -7 -34 -16z"/>
<path d="M16 104 c-9 -8 -16 -29 -16 -45 0 -29 1 -29 55 -29 53 0 55 1 55 27
0 14 7 35 17 45 15 17 14 18 -40 18 -37 0 -61 -5 -71 -16z"/>
<path d="M156 95 c-27 -21 -27 -52 1 -70 21 -14 25 -14 46 0 28 18 28 49 1 70
-10 8 -21 14 -24 14 -3 0 -14 -6 -24 -14z m40 -26 c10 -17 -13 -36 -27 -22
-12 12 -4 33 11 33 5 0 12 -5 16 -11z"/>
</g>
</svg>
