<?xml version="1.0" standalone="no"?>
<!DOCTYPE svg PUBLIC "-//W3C//DTD SVG 20010904//EN"
 "http://www.w3.org/TR/2001/REC-SVG-20010904/DTD/svg10.dtd">
<svg version="1.0" xmlns="http://www.w3.org/2000/svg"
 width="22" height="22" viewBox="0 0 96.000000 96.000000"
 preserveAspectRatio="xMidYMid meet">
<metadata>
Created by potrace 1.13, written by Peter Selinger 2001-2015
</metadata>
<g transform="translate(0.000000,96.000000) scale(0.100000,-0.100000)"
fill="#666666" stroke="none">
<path d="M275 873 c-131 -68 -154 -225 -48 -325 86 -81 232 -59 297 45 81 131
-13 298 -168 297 -28 -1 -64 -8 -81 -17z"/>
<path d="M605 453 c-79 -41 -125 -113 -125 -195 1 -240 324 -302 417 -81 30
74 7 179 -53 235 -60 56 -174 76 -239 41z m93 -130 l3 -62 52 -3 c44 -3 52 -6
52 -23 0 -18 -8 -20 -63 -23 -85 -4 -92 3 -92 93 0 75 4 88 30 83 11 -2 16
-19 18 -65z"/>
<path d="M80 390 c-29 -29 -28 -122 3 -172 50 -83 145 -122 282 -116 100 4
112 11 88 58 -30 62 -21 153 25 243 2 4 -82 7 -187 7 -178 0 -192 -1 -211 -20z"/>
</g>
</svg>
