<svg width="18" height="18" viewBox="0 0 18 18" fill="#666666" xmlns="http://www.w3.org/2000/svg">
<g clip-path="url(#clip0)">
<path d="M10.3702 3.825V6.35273L9.83581 6.37383C8.77058 6.41953 7.79323 6.61992 6.71393 7.0207C6.2569 7.18594 5.32878 7.64648 4.90339 7.91367C1.97839 9.74883 0.171356 12.832 0.0166687 16.2457L-0.00442505 16.7168L0.111591 16.527C0.368231 16.1086 0.783075 15.5039 1.00456 15.2227C1.328 14.8148 2.26315 13.8867 2.67097 13.5738C4.21433 12.382 5.78933 11.7246 7.82136 11.4188C8.17292 11.3695 10.0116 11.352 10.2401 11.4012L10.3702 11.4293V13.957C10.3702 15.3492 10.3807 16.4883 10.3983 16.4883C10.4124 16.4883 12.1315 14.7797 14.2198 12.6914L18.0167 8.89453L14.2198 5.09766C12.1315 3.00938 10.4124 1.30078 10.3983 1.30078C10.3807 1.30078 10.3702 2.43633 10.3702 3.825Z" fill="black" fill-opacity="0.5"/>
</g>
<defs>
<clipPath id="clip0">
<rect width="18" height="18" fill="white"/>
</clipPath>
</defs>
</svg>
