<?xml version="1.0" standalone="no"?>
<!DOCTYPE svg PUBLIC "-//W3C//DTD SVG 20010904//EN"
 "http://www.w3.org/TR/2001/REC-SVG-20010904/DTD/svg10.dtd">
<svg version="1.0" xmlns="http://www.w3.org/2000/svg"
 width="64.000000pt" height="64.000000pt" viewBox="0 0 64.000000 64.000000"
 preserveAspectRatio="xMidYMid meet">

<g transform="translate(0.000000,64.000000) scale(0.100000,-0.100000)"
fill="#666666" stroke="none">
<path d="M210 593 c-61 -22 -142 -104 -163 -167 -39 -114 -14 -231 67 -312
115 -115 297 -115 412 0 81 81 106 198 67 312 -22 66 -101 145 -167 167 -61
21 -156 21 -216 0z m143 -104 c39 -18 64 -89 32 -89 -9 0 -15 9 -15 23 0 30
-18 47 -50 47 -32 0 -50 -17 -50 -47 0 -14 -6 -23 -15 -23 -30 0 -7 71 29 88
28 14 40 14 69 1z m81 -141 c9 -36 7 -118 -4 -139 -10 -17 -22 -19 -110 -19
-116 0 -120 3 -120 94 0 88 -3 86 120 86 103 0 108 -1 114 -22z"/>
<path d="M303 309 c-8 -8 -8 -19 0 -40 6 -16 14 -29 17 -29 3 0 11 13 17 29
10 28 2 51 -17 51 -3 0 -11 -5 -17 -11z"/>
</g>
</svg>
