<?xml version="1.0" standalone="no"?>
<!DOCTYPE svg PUBLIC "-//W3C//DTD SVG 20010904//EN"
 "http://www.w3.org/TR/2001/REC-SVG-20010904/DTD/svg10.dtd">
<svg version="1.0" xmlns="http://www.w3.org/2000/svg"
 width="50" height="50" viewBox="0 0 50 50"
 preserveAspectRatio="xMidYMid meet">

<g transform="translate(0.000000,50.000000) scale(0.100000,-0.100000)"
fill="#666666" stroke="none">
<path d="M205 441 c-6 -6 -34 -11 -63 -13 -29 -2 -52 -7 -52 -13 0 -6 60 -10
160 -10 98 0 161 4 163 10 1 6 -23 11 -53 13 -30 2 -59 7 -64 13 -6 5 -26 9
-46 9 -20 0 -40 -4 -45 -9z"/>
<path d="M102 223 l3 -148 145 0 145 0 3 148 3 147 -151 0 -151 0 3 -147z
m130 40 c17 -15 19 -15 38 2 11 10 26 15 36 11 15 -6 15 -9 -6 -31 l-22 -24
21 -27 c30 -38 11 -57 -24 -24 l-25 23 -25 -23 c-35 -33 -54 -14 -24 24 l21
27 -21 23 c-32 34 -5 52 31 19z"/>
</g>
</svg>
