<?xml version="1.0" standalone="no"?>
<!DOCTYPE svg PUBLIC "-//W3C//DTD SVG 20010904//EN"
 "http://www.w3.org/TR/2001/REC-SVG-20010904/DTD/svg10.dtd">
<svg version="1.0" xmlns="http://www.w3.org/2000/svg"
 width="22" height="22" viewBox="0 0 96.000000 96.000000"
 preserveAspectRatio="xMidYMid meet">

<g transform="translate(0.000000,96.000000) scale(0.100000,-0.100000)"
fill="#666666" stroke="none">
<path d="M386 870 c-63 -16 -153 -70 -197 -117 -22 -24 -55 -74 -72 -111 -29
-61 -32 -76 -32 -163 0 -90 2 -99 37 -171 45 -91 103 -147 196 -191 61 -29 76
-32 162 -32 86 0 101 3 162 32 37 17 87 50 112 74 56 50 113 162 122 237 l7
52 -41 0 -40 0 -7 -47 c-8 -60 -59 -156 -98 -189 -16 -14 -53 -37 -81 -52 -43
-22 -64 -26 -136 -26 -72 0 -93 4 -136 26 -75 40 -107 70 -145 140 -31 58 -34
70 -33 148 0 100 24 160 89 225 65 65 125 89 225 89 73 0 92 -4 135 -26 28
-15 64 -38 80 -52 l30 -25 -45 -45 -44 -46 122 0 122 0 0 122 0 122 -49 -48
-49 -49 -44 36 c-72 59 -147 88 -236 93 -42 2 -94 -1 -116 -6z"/>
<path d="M423 664 c-35 -17 -63 -67 -63 -111 0 -17 -8 -33 -20 -41 -18 -11
-20 -23 -20 -110 0 -63 4 -102 12 -110 17 -17 279 -17 296 0 8 8 12 47 12 110
0 87 -2 99 -20 110 -12 8 -20 24 -20 41 0 46 -28 94 -65 111 -41 20 -71 20
-112 0z m97 -64 c11 -11 20 -33 20 -50 l0 -30 -60 0 -60 0 0 30 c0 34 31 70
60 70 11 0 29 -9 40 -20z"/>
</g>
</svg>
