<?xml version="1.0" standalone="no"?>
<!DOCTYPE svg PUBLIC "-//W3C//DTD SVG 20010904//EN"
 "http://www.w3.org/TR/2001/REC-SVG-20010904/DTD/svg10.dtd">
<svg version="1.0" xmlns="http://www.w3.org/2000/svg"
 width="22" height="22" viewBox="0 0 24.000000 24.000000"
 preserveAspectRatio="xMidYMid meet">

<g transform="translate(0.000000,24.000000) scale(0.100000,-0.100000)"
fill="#666666" stroke="none">
<path d="M175 189 c-4 -6 -19 -7 -35 -4 -33 7 -87 -13 -114 -44 -19 -21 -19
-21 3 -45 13 -14 19 -29 15 -39 -3 -10 -2 -17 2 -17 11 0 154 142 154 152 0
12 -18 10 -25 -3z m-45 -36 c0 -10 -32 -43 -42 -43 -13 0 -9 17 8 34 16 16 34
21 34 9z"/>
<path d="M172 133 c-27 -35 -32 -41 -57 -58 -11 -7 -17 -17 -13 -21 13 -12 83
14 108 41 l24 25 -21 21 -20 21 -21 -29z"/>
</g>
</svg>
