<?xml version="1.0" standalone="no"?>
<!DOCTYPE svg PUBLIC "-//W3C//DTD SVG 20010904//EN"
 "http://www.w3.org/TR/2001/REC-SVG-20010904/DTD/svg10.dtd">
<svg version="1.0" xmlns="http://www.w3.org/2000/svg"
 width="48" height="48" viewBox="0 0 48.000000 48.000000"
 preserveAspectRatio="xMidYMid meet">
<metadata>
Created by potrace 1.13, written by Peter Selinger 2001-2015
</metadata>
<g transform="translate(0.000000,48.000000) scale(0.100000,-0.100000)"
fill="#666666" stroke="none">
<path d="M60 235 l0 -175 175 0 175 0 0 175 0 175 -175 0 -175 0 0 -175z m233
57 c26 -27 44 -51 41 -55 -4 -4 -22 -7 -40 -7 -32 0 -33 -1 -36 -47 -3 -40 -6
-48 -23 -48 -17 0 -20 8 -23 48 -3 46 -4 47 -38 47 -18 0 -34 4 -34 9 0 10 90
101 100 101 3 0 27 -22 53 -48z"/>
</g>
</svg>
