<?xml version="1.0" standalone="no"?>
<!DOCTYPE svg PUBLIC "-//W3C//DTD SVG 20010904//EN"
 "http://www.w3.org/TR/2001/REC-SVG-20010904/DTD/svg10.dtd">
<svg version="1.0" xmlns="http://www.w3.org/2000/svg"
 width="22" height="22" viewBox="0 0 24.000000 24.000000"
 preserveAspectRatio="xMidYMid meet">

<g transform="translate(0.000000,24.000000) scale(0.100000,-0.100000)"
fill="#666666" stroke="none">
<path d="M170 200 c0 -6 -32 -10 -75 -10 -43 0 -75 -4 -75 -10 0 -6 31 -10 74
-10 50 0 76 -4 80 -12 5 -10 7 -10 12 0 3 6 12 12 20 12 8 0 14 5 14 10 0 6
-7 10 -15 10 -8 0 -15 5 -15 10 0 6 -4 10 -10 10 -5 0 -10 -4 -10 -10z"/>
<path d="M110 140 c0 -5 -20 -10 -45 -10 -25 0 -45 -4 -45 -10 0 -5 20 -10 44
-10 26 0 47 -5 50 -12 5 -10 7 -10 12 0 3 7 24 12 50 12 24 0 44 5 44 10 0 6
-20 10 -45 10 -25 0 -45 5 -45 10 0 6 -4 10 -10 10 -5 0 -10 -4 -10 -10z"/>
<path d="M170 80 c0 -6 -32 -10 -75 -10 -43 0 -75 -4 -75 -10 0 -6 31 -10 74
-10 50 0 76 -4 80 -12 5 -10 7 -10 12 0 3 6 12 12 20 12 8 0 14 5 14 10 0 6
-7 10 -15 10 -8 0 -15 5 -15 10 0 6 -4 10 -10 10 -5 0 -10 -4 -10 -10z"/>
</g>
</svg>
