<?xml version="1.0" standalone="no"?>
<!DOCTYPE svg PUBLIC "-//W3C//DTD SVG 20010904//EN"
 "http://www.w3.org/TR/2001/REC-SVG-20010904/DTD/svg10.dtd">
<svg version="1.0" xmlns="http://www.w3.org/2000/svg"
 width="50" height="50" viewBox="0 0 50 50"
 preserveAspectRatio="xMidYMid meet">

<g transform="translate(0.000000,50.000000) scale(0.100000,-0.100000)"
fill="#666666" stroke="none">
<path d="M165 433 c-153 -80 -155 -286 -3 -364 46 -23 118 -26 118 -4 0 11
-11 15 -37 15 -86 1 -163 81 -163 170 0 123 135 208 243 154 52 -26 58 -34 46
-55 -9 -17 -6 -19 36 -19 39 0 46 3 41 18 -3 9 -8 30 -12 45 -6 26 -8 27 -24
12 -12 -11 -20 -13 -25 -6 -27 45 -161 66 -220 34z"/>
<path d="M329 171 c-48 -49 -38 -125 21 -156 46 -24 78 -19 116 19 38 38 43
70 19 116 -31 59 -107 69 -156 21z m121 -49 c0 -5 -13 -21 -30 -37 -29 -28
-30 -28 -50 -10 -26 24 -25 37 3 30 12 -3 31 1 42 9 22 17 35 20 35 8z"/>
</g>
</svg>
