<?xml version="1.0" standalone="no"?>
<!DOCTYPE svg PUBLIC "-//W3C//DTD SVG 20010904//EN"
 "http://www.w3.org/TR/2001/REC-SVG-20010904/DTD/svg10.dtd">
<svg version="1.0" xmlns="http://www.w3.org/2000/svg"
 width="20" height="20" viewBox="0 0 512 512"
 preserveAspectRatio="xMidYMid meet">

<g transform="translate(0.000000,512.000000) scale(0.100000,-0.100000)"
fill="#736f72" stroke="none">
<path d="M501 4465 c-177 -39 -347 -171 -429 -335 -75 -151 -72 -66 -72 -1575
0 -1335 0 -1351 21 -1425 56 -203 177 -349 357 -432 135 -62 14 -59 2217 -56
l2010 3 65 22 c199 68 361 232 423 428 l22 70 0 1395 0 1395 -22 70 c-52 163
-175 309 -323 383 -153 77 5 72 -2215 71 -1658 0 -2001 -3 -2054 -14z m4092
-445 c21 -14 50 -43 65 -64 l27 -39 3 -886 2 -886 -592 591 c-560 558 -596
593 -651 613 -121 44 -239 34 -337 -29 -25 -16 -277 -261 -560 -545 -283 -283
-519 -515 -525 -515 -6 0 -80 70 -164 154 -192 192 -225 211 -371 211 -162 -1
-147 10 -637 -479 l-423 -420 0 1082 c0 1186 -4 1117 61 1181 64 65 -92 60
2080 58 l1985 -2 37 -25z"/>
<path d="M959 3826 c-112 -32 -221 -121 -272 -222 -118 -236 3 -518 258 -598
42 -14 79 -17 145 -14 77 4 98 9 163 41 143 71 228 199 235 358 5 106 -12 171
-67 256 -45 70 -125 135 -203 165 -67 25 -196 33 -259 14z"/>
</g>
</svg>
